Coordinates
version=1
nRows=16
nColumns=40
inDegrees=yes

Units are S.I. units (second, meters, Newtons, ...)
Angles are in degrees.

endheader
time	pelvis_tilt	pelvis_list	pelvis_rotation	pelvis_tx	pelvis_ty	pelvis_tz	hip_flexion_r	hip_adduction_r	hip_rotation_r	knee_angle_r	knee_angle_r_beta	ankle_angle_r	subtalar_angle_r	mtp_angle_r	hip_flexion_l	hip_adduction_l	hip_rotation_l	knee_angle_l	knee_angle_l_beta	ankle_angle_l	subtalar_angle_l	mtp_angle_l	lumbar_extension	lumbar_bending	lumbar_rotation	arm_flex_r	arm_add_r	arm_rot_r	elbow_flex_r	pro_sup_r	wrist_flex_r	wrist_dev_r	arm_flex_l	arm_add_l	arm_rot_l	elbow_flex_l	pro_sup_l	wrist_flex_l	wrist_dev_l
      0.80000000	     -5.74824731	      1.94700294	      1.72711578	      0.88282216	      1.04384032	     -0.52785367	     33.37369909	    -10.72618461	    -13.57019794	     43.01445920	     43.01445920	     -3.23508730	      0.00000000	      0.00000000	     -0.76775598	      5.78539094	      2.90308730	      8.47537713	      8.47537713	      1.71378141	      0.00000000	      0.00000000	     -2.86232613	     -0.30117518	     -1.59312611	    -14.47775777	     -8.97408856	    -18.84266957	     24.25368179	     17.53520757	      0.00000000	      0.00000000	     -2.85965266	     -9.21717897	      1.80759525	     47.73752620	     16.53457810	      0.00000000	      0.00000000
      0.81000000	     -6.13083329	      1.87602204	      1.79544832	      0.88128367	      1.04182087	     -0.52734641	     33.93924629	    -10.47169527	    -14.81996957	     39.18745151	     39.18745151	     -3.48905520	      0.00000000	      0.00000000	     -1.51509890	      5.66204102	      3.17466317	      7.89604487	      7.89604487	      1.99537038	      0.00000000	      0.00000000	     -2.56989076	     -0.20839193	     -1.80301972	    -14.89348782	     -9.00707920	    -18.64165087	     23.74291197	     17.54722604	      0.00000000	      0.00000000	     -2.52166199	     -9.32226402	      1.61081646	     49.36669288	     16.58037898	      0.00000000	      0.00000000
      0.82000000	     -6.23559116	      1.71825470	      1.79419392	      0.88018684	      1.04005085	     -0.52682870	     33.98356679	     -9.89608809	    -15.85976626	     34.95987788	     34.95987788	     -3.99081533	      0.00000000	      0.00000000	     -2.66543709	      5.43547962	      3.40200155	      7.13692680	      7.13692680	      2.12107134	      0.00000000	      0.00000000	     -2.56137385	      0.00470590	     -1.96228965	    -15.26172281	     -9.07829827	    -18.41830264	     23.25497263	     17.46895568	      0.00000000	      0.00000000	     -2.20251360	     -9.36678241	      1.29247719	     50.95817178	     16.58769798	      0.00000000	      0.00000000
      0.83000000	     -6.15496971	      1.57281228	      1.69852016	      0.87946895	      1.03830512	     -0.52627896	     33.77735598	     -9.10423457	    -16.40620294	     30.67528856	     30.67528856	     -4.49879367	      0.00000000	      0.00000000	     -4.11698395	      5.22184270	      3.54299865	      6.21163522	      6.21163522	      2.14728134	      0.00000000	      0.00000000	     -2.74601254	      0.22018167	     -1.98864504	    -15.61532334	     -9.10886232	    -18.36397124	     22.86183140	     17.21688681	      0.00000000	      0.00000000	     -1.88551908	     -9.40759275	      1.11247545	     52.57892422	     16.50540368	      0.00000000	      0.00000000
      0.84000000	     -6.71532834	      1.56657227	      1.56436811	      0.87847828	      1.03530558	     -0.52563500	     34.37645679	     -8.29441417	    -16.15802726	     26.63004449	     26.63004449	     -4.86134330	      0.00000000	      0.00000000	     -4.62492592	      5.18447701	      3.47746655	      5.78591435	      5.78591435	      2.37420064	      0.00000000	      0.00000000	     -2.18921804	      0.25251216	     -1.98675338	    -16.02180460	     -9.09804713	    -18.60149195	     22.51882934	     17.19019040	      0.00000000	      0.00000000	     -1.71055366	     -9.46201734	      0.83218845	     54.17662357	     16.50868130	      0.00000000	      0.00000000
      0.85000000	     -6.90557906	      1.33927339	      1.41871935	      0.87754500	      1.03274966	     -0.52464844	     34.28805938	     -7.10832921	    -15.50097667	     22.24795276	     22.24795276	     -5.05303150	      0.00000000	      0.00000000	     -5.44424928	      4.87965098	      3.40503118	      5.53290126	      5.53290126	      2.63767559	      0.00000000	      0.00000000	     -2.09897646	      0.52800075	     -1.94464361	    -16.33897402	     -9.08497786	    -18.72644290	     22.26210536	     17.19515814	      0.00000000	      0.00000000	     -1.41298529	     -9.48457567	      0.52171606	     55.64027460	     16.48887329	      0.00000000	      0.00000000
      0.86000000	     -7.34385697	      1.29281577	      1.28971143	      0.87662156	      1.02963211	     -0.52362006	     34.43795767	     -6.10907130	    -14.22005098	     18.08473800	     18.08473800	     -5.05832155	      0.00000000	      0.00000000	     -5.90705736	      4.78455117	      3.26516672	      5.46555191	      5.46555191	      2.89986557	      0.00000000	      0.00000000	     -1.70755767	      0.59025991	     -1.97285943	    -16.63676046	     -9.05681597	    -18.92693012	     22.08094935	     17.20623132	      0.00000000	      0.00000000	     -1.21097242	     -9.54949706	      0.19032747	     57.06724585	     16.54127094	      0.00000000	      0.00000000
      0.87000000	     -7.47429258	      0.96002400	      1.23752189	      0.87608788	      1.02690449	     -0.52245977	     33.89678604	     -4.87291584	    -12.58812207	     13.69816279	     13.69816279	     -5.01409823	      0.00000000	      0.00000000	     -6.52475787	      4.34437262	      3.18345964	      5.79949334	      5.79949334	      3.35330581	      0.00000000	      0.00000000	     -1.64556189	      0.97626897	     -2.05347598	    -16.89956191	     -9.06256659	    -19.04008658	     21.96001844	     17.22669889	      0.00000000	      0.00000000	     -0.94473591	     -9.57678970	     -0.06901490	     58.24046542	     16.68137154	      0.00000000	      0.00000000
      0.88000000	     -7.53247757	      0.66314578	      1.29301405	      0.87580431	      1.02422419	     -0.52129037	     33.10022761	     -3.83746373	    -10.60373608	      9.46455084	      9.46455084	     -5.11744526	      0.00000000	      0.00000000	     -7.08165034	      3.90798593	      3.08295327	      6.42322514	      6.42322514	      3.87898377	      0.00000000	      0.00000000	     -1.65531425	      1.30834419	     -2.22815021	    -17.14788117	     -9.03500647	    -19.17745184	     21.89668949	     17.21339291	      0.00000000	      0.00000000	     -0.71794088	     -9.64879245	     -0.27977709	     59.41638566	     16.85679700	      0.00000000	      0.00000000
      0.89000000	     -7.58467825	      0.56872970	      1.38781072	      0.87550380	      1.02152379	     -0.52002381	     32.38710786	     -3.19737147	     -8.37547884	      5.91093516	      5.91093516	     -5.24283803	      0.00000000	      0.00000000	     -7.46275824	      3.65192874	      2.95080028	      7.38456153	      7.38456153	      4.30215300	      0.00000000	      0.00000000	     -1.69126200	      1.38277790	     -2.46844794	    -17.32322290	     -8.95239377	    -19.38745209	     21.88609459	     17.24295844	      0.00000000	      0.00000000	     -0.58371879	     -9.78148453	     -0.49625993	     60.77055795	     17.03494585	      0.00000000	      0.00000000
      0.90000000	     -7.29024785	      0.18731650	      1.61821332	      0.87548280	      1.01941168	     -0.51868959	     31.08251887	     -2.44859095	     -6.57924837	      2.52599033	      2.52599033	     -5.82278409	      0.00000000	      0.00000000	     -8.01714599	      3.03190290	      2.85113158	      8.76166633	      8.76166633	      4.90947566	      0.00000000	      0.00000000	     -2.10049396	      1.78918549	     -2.76488550	    -17.42614710	     -8.89670164	    -19.44779072	     21.87129746	     17.17637147	      0.00000000	      0.00000000	     -0.33104788	     -9.87280605	     -0.55159734	     61.66554020	     17.06196745	      0.00000000	      0.00000000
      0.91000000	     -7.09295402	     -0.01632953	      1.78445677	      0.87554776	      1.01718459	     -0.51729408	     30.46505220	     -2.00552695	     -5.37575025	      0.92774650	      0.92774650	     -6.01578535	      0.00000000	      0.00000000	     -8.45129732	      2.60338822	      2.72744221	     10.14498371	     10.14498371	      5.15138314	      0.00000000	      0.00000000	     -2.40016653	      1.99595036	     -3.01278229	    -17.49275190	     -8.81879192	    -19.56813276	     21.86866754	     17.13482847	      0.00000000	      0.00000000	     -0.15677719	     -9.98159294	     -0.63424541	     62.56392794	     17.04629361	      0.00000000	      0.00000000
      0.92000000	     -6.98416244	     -0.33007725	      1.88992249	      0.87587844	      1.01495012	     -0.51589979	     30.38893402	     -1.51013479	     -5.03341543	      0.91753750	      0.91753750	     -6.10308898	      0.00000000	      0.00000000	     -8.71527597	      2.06253098	      2.56544629	     11.68680850	     11.68680850	      5.23864110	      0.00000000	      0.00000000	     -2.54656577	      2.34426470	     -3.15936635	    -17.58079610	     -8.79554811	    -19.66428129	     21.87125743	     17.14275087	      0.00000000	      0.00000000	     -0.02778003	    -10.02700667	     -0.63240892	     63.26305615	     17.04173789	      0.00000000	      0.00000000
      0.93000000	     -6.69704191	     -0.79606099	      1.83167822	      0.87671809	      1.01317640	     -0.51436581	     30.46369689	     -0.83923346	     -5.36313876	      2.30210311	      2.30210311	     -6.18237724	      0.00000000	      0.00000000	     -9.20851429	      1.36448569	      2.21035025	     13.17102422	     13.17102422	      5.08582239	      0.00000000	      0.00000000	     -2.84520360	      2.89217984	     -3.13542819	    -17.63418542	     -8.87650626	    -19.76914712	     21.87860199	     17.17424042	      0.00000000	      0.00000000	      0.04774919	    -10.02083433	     -0.70568499	     63.79258798	     17.06834740	      0.00000000	      0.00000000
      0.94000000	     -7.06268462	     -1.15399470	      1.82454101	      0.87741494	      1.01061735	     -0.51292747	     32.04672559	     -0.49361554	     -6.41768186	      5.86158663	      5.86158663	     -5.98767445	      0.00000000	      0.00000000	     -8.62938270	      0.77261358	      1.84008043	     15.37777680	     15.37777680	      4.93932666	      0.00000000	      0.00000000	     -2.34996914	      3.30091307	     -3.16124112	    -17.74194510	     -8.88126017	    -19.89314293	     21.89728913	     17.37896895	      0.00000000	      0.00000000	     -0.04956856	     -9.94936802	     -0.69110338	     64.06849232	     17.17843575	      0.00000000	      0.00000000
      0.95000000	     -6.51672621	     -1.83311643	      1.70725388	      0.87908764	      1.00969631	     -0.51114516	     32.04752534	      0.29044729	     -7.27035563	      8.54964552	      8.54964552	     -6.61797985	      0.00000000	      0.00000000	     -9.32688995	     -0.19664403	      1.25288158	     17.00645268	     17.00645268	      4.22764078	      0.00000000	      0.00000000	     -2.84429085	      4.09586321	     -3.04235466	    -17.71109914	     -9.00081116	    -19.89689758	     21.88559623	     17.44009687	      0.00000000	      0.00000000	     -0.11384188	     -9.84029088	     -0.68191179	     64.24593488	     17.21279061	      0.00000000	      0.00000000
